<?xml version="1.0" standalone="no"?>
<!DOCTYPE svg PUBLIC "-//W3C//DTD SVG 20010904//EN"
 "http://www.w3.org/TR/2001/REC-SVG-20010904/DTD/svg10.dtd">
<svg version="1.0" xmlns="http://www.w3.org/2000/svg"
 width="1200.000000pt" height="1200.000000pt" viewBox="0 0 1200.000000 1200.000000"
 preserveAspectRatio="xMidYMid meet">
<metadata>
Created by potrace 1.16, written by Peter Selinger 2001-2019
</metadata>
<g transform="translate(0.000000,1200.000000) scale(0.100000,-0.100000)"
fill="#000000" stroke="none">
<path d="M1 7883 c1 -2265 5 -4107 9 -4093 4 14 8 37 9 52 1 15 12 44 26 64
14 21 28 49 32 63 18 78 119 199 173 207 18 3 45 15 60 25 14 11 44 21 66 22
21 1 42 6 45 11 10 12 543 27 805 22 271 -5 281 -6 265 -15 -17 -11 59 -31
137 -38 37 -2 81 -7 97 -10 17 -3 66 -5 109 -4 65 1 87 5 125 27 48 27 188 67
203 58 4 -3 8 -1 8 4 0 5 21 13 48 17 26 4 55 12 66 17 28 15 78 19 314 24
145 4 212 2 212 -5 0 -6 10 -11 23 -11 13 0 27 -4 32 -9 6 -5 48 -19 95 -31
47 -12 105 -31 129 -42 33 -16 45 -18 51 -8 5 9 12 6 24 -11 9 -13 16 -18 16
-11 0 23 15 12 55 -38 27 -34 47 -50 63 -50 15 0 26 -9 33 -27 6 -16 15 -35
20 -43 5 -8 12 -22 15 -30 4 -8 14 -33 24 -55 10 -22 21 -51 25 -63 5 -19 12
-22 30 -18 16 4 25 1 29 -11 9 -22 25 -5 36 38 15 60 34 104 55 125 11 11 28
35 37 53 10 18 34 39 56 49 21 9 39 20 39 25 1 4 3 11 5 15 5 12 131 89 158
97 14 4 37 18 51 31 14 14 36 27 49 29 13 2 27 10 30 16 4 6 11 11 16 11 34 1
53 20 59 57 4 22 4 49 0 61 -11 35 10 22 23 -14 7 -19 21 -38 32 -41 10 -3 31
-26 47 -51 15 -24 35 -47 45 -49 9 -3 23 -17 32 -30 23 -35 66 -76 109 -105
20 -14 37 -28 37 -32 0 -5 6 -8 14 -8 7 0 30 -18 50 -40 31 -34 42 -40 76 -40
28 0 43 -5 47 -16 9 -25 123 -94 154 -94 15 0 40 -5 56 -11 l28 -11 -32 -13
c-17 -7 -34 -22 -38 -34 -3 -11 -15 -23 -26 -26 -11 -4 -19 -15 -19 -28 0 -33
25 -109 33 -101 4 4 24 1 46 -6 33 -11 42 -10 65 5 15 10 44 21 64 26 20 4 78
19 127 34 130 38 174 45 168 29 -3 -7 -15 -16 -26 -20 -12 -3 -28 -11 -35 -17
-15 -12 -163 -63 -237 -82 -73 -19 -129 -41 -133 -53 -2 -6 11 -13 27 -17 17
-4 31 -10 31 -15 0 -9 -39 -38 -82 -60 -16 -7 -28 -19 -28 -27 0 -33 101 -40
154 -10 11 6 35 16 53 23 25 9 139 73 203 115 75 48 303 161 336 166 47 6 74
-13 74 -54 0 -23 3 -25 30 -19 36 7 81 -27 61 -47 -12 -12 -15 -66 -5 -91 3
-9 16 -16 29 -16 12 0 39 -7 58 -15 20 -8 52 -15 71 -15 22 0 45 -9 63 -24 16
-13 40 -26 53 -28 21 -2 24 -8 22 -33 -2 -16 -11 -34 -19 -38 -12 -8 -12 -12
2 -34 13 -19 14 -27 4 -39 -9 -11 -8 -14 2 -15 8 0 3 -5 -10 -10 -36 -14 -14
-27 51 -31 58 -3 73 -13 61 -44 -5 -13 -8 -13 -15 -2 -6 8 -8 -2 -4 -32 2 -24
10 -46 15 -48 17 -6 13 -33 -13 -85 -21 -40 -76 -105 -91 -106 -3 -1 -9 -1
-15 -1 -22 0 -8 -16 30 -34 22 -10 37 -23 34 -27 -5 -9 9 -13 34 -10 6 1 12
-4 12 -11 1 -7 6 -4 13 7 13 22 44 27 39 7 -1 -7 -11 -21 -22 -32 -12 -12 -18
-26 -13 -33 4 -7 6 -20 5 -29 -2 -10 1 -18 7 -18 30 0 -48 -114 -279 -408 -36
-46 -74 -96 -85 -111 -11 -16 -42 -57 -69 -92 -26 -35 -61 -86 -77 -114 -15
-27 -50 -77 -76 -110 -140 -174 -362 -470 -544 -725 -137 -193 -772 -1153
-817 -1236 l-13 -24 3966 0 3965 0 0 696 0 696 -47 60 c-58 76 -166 182 -255
251 -37 28 -103 79 -146 112 -186 142 -219 169 -229 191 -9 19 -7 23 10 28 15
4 18 8 10 18 -15 19 -24 79 -14 92 5 6 11 47 14 91 15 210 18 266 21 340 2 44
9 143 15 220 14 181 20 302 30 620 10 311 8 407 -13 500 -23 105 -10 311 25
393 11 24 17 48 13 53 -3 5 2 12 12 16 9 3 35 23 57 45 22 21 44 38 48 38 4 0
31 20 59 44 29 25 78 57 109 72 54 27 100 33 259 34 l22 0 0 3695 0 3695
-1279 0 -1280 0 -10 -52 c-9 -45 -22 -378 -21 -517 1 -129 -31 -692 -42 -721
-28 -83 -59 -119 -128 -154 -30 -15 -57 -31 -60 -34 -27 -36 -104 -92 -125
-92 -15 0 -50 -11 -78 -24 -29 -14 -74 -27 -102 -29 -72 -8 -145 -23 -187 -41
-21 -9 -51 -16 -68 -16 -17 0 -52 -11 -78 -24 -26 -13 -62 -27 -80 -31 -18 -3
-38 -12 -45 -18 -26 -25 -116 -67 -143 -67 -16 -1 -47 -7 -69 -16 -22 -8 -65
-17 -95 -20 -63 -7 -53 -17 -114 116 -14 30 -30 62 -35 70 -5 8 -28 53 -51
100 -23 47 -50 94 -60 105 -10 11 -26 38 -35 60 -9 22 -33 60 -54 85 -21 25
-54 70 -73 100 -40 62 -155 186 -222 239 -25 20 -76 61 -113 92 -37 30 -112
86 -165 123 -54 37 -103 75 -110 85 -7 10 -31 27 -54 39 -22 11 -67 38 -100
60 -32 22 -77 49 -99 61 -22 12 -55 33 -74 46 -19 14 -43 25 -55 25 -12 0 -40
15 -63 34 -23 18 -57 39 -75 46 -43 18 -118 68 -118 80 0 15 50 35 135 54 44
10 85 22 90 26 6 5 33 11 60 15 28 4 75 20 106 35 30 16 91 35 135 44 43 8 94
22 113 32 18 9 54 19 80 21 25 2 63 14 85 25 44 24 133 27 206 8 75 -20 110
-18 127 8 l15 22 -3796 0 -3796 0 1 -4117z m4690 3141 c10 -12 27 -15 73 -12
57 3 61 1 64 -19 2 -15 10 -23 23 -23 21 0 27 19 7 21 -10 0 -10 2 -1 6 7 2
20 -3 29 -11 8 -9 26 -16 39 -16 13 0 25 -5 27 -12 3 -9 13 -9 39 -2 26 8 34
15 33 32 0 12 1 22 3 22 13 0 33 -32 33 -50 0 -12 8 -35 18 -52 14 -25 22 -29
48 -25 19 3 31 1 31 -6 0 -7 4 -19 7 -28 5 -11 -3 -19 -29 -29 -47 -18 -45
-34 4 -26 38 6 39 5 45 -28 10 -51 -3 -118 -21 -112 -23 9 -53 -12 -53 -37 0
-48 34 -63 35 -15 0 11 8 26 17 32 22 14 69 -19 79 -56 5 -21 2 -28 -17 -37
-29 -13 -35 -70 -8 -67 35 3 23 -22 -13 -29 -43 -7 -83 -46 -83 -80 0 -11 16
-36 35 -55 30 -29 42 -34 74 -31 40 2 48 -3 58 -41 14 -61 14 -76 -1 -91 -21
-21 -20 -31 9 -77 14 -22 25 -48 25 -57 0 -10 14 -35 30 -57 24 -31 27 -41 17
-57 -9 -15 -7 -22 10 -41 12 -13 27 -45 33 -73 6 -27 19 -58 28 -69 9 -11 11
-16 5 -12 -7 4 -13 3 -13 -3 0 -18 36 -31 48 -19 13 13 15 8 29 -52 10 -43 5
-120 -7 -120 -17 0 -50 -34 -50 -51 0 -19 -25 -33 -56 -30 -21 2 -52 -25 -41
-36 4 -3 2 -12 -4 -20 -9 -9 -8 -13 0 -13 6 0 11 5 11 10 0 17 57 12 64 -6 8
-20 -8 -51 -18 -35 -7 11 -56 16 -56 6 0 -4 7 -20 16 -38 12 -21 13 -32 5 -35
-6 -2 -11 -12 -11 -22 0 -22 -44 -91 -66 -103 -9 -5 -14 -20 -12 -37 4 -43
-25 -69 -70 -63 -33 4 -40 1 -60 -27 -20 -26 -21 -34 -10 -47 7 -9 13 -39 13
-67 0 -48 2 -51 28 -54 22 -3 27 1 27 17 0 22 32 47 65 53 13 2 20 -3 20 -12
0 -8 -6 -14 -13 -12 -8 1 -16 -6 -19 -17 -3 -13 -10 -18 -20 -14 -12 5 -14 1
-8 -18 4 -13 14 -36 21 -51 8 -15 14 -38 14 -53 0 -14 4 -25 9 -25 6 0 6 -13
1 -32 -19 -70 -25 -193 -17 -393 5 -141 -8 -268 -31 -312 -9 -16 -10 -35 -3
-65 8 -34 7 -44 -4 -51 -9 -5 -13 -21 -10 -52 2 -25 -1 -45 -6 -45 -5 0 -11
-11 -15 -25 -4 -18 2 -34 25 -64 17 -21 31 -48 31 -60 0 -12 4 -21 8 -21 5 0
14 -17 20 -37 9 -29 9 -39 -1 -45 -16 -10 3 -42 29 -47 55 -10 59 -52 7 -74
-52 -22 -86 -31 -100 -29 -7 2 -13 -1 -13 -6 0 -13 -49 -22 -56 -11 -10 17
-22 9 -33 -22 -7 -20 -21 -35 -41 -42 -16 -6 -30 -18 -30 -25 0 -8 -13 -31
-30 -52 -16 -21 -30 -48 -30 -61 0 -13 -11 -37 -25 -53 -14 -16 -25 -25 -25
-21 0 4 -8 1 -18 -8 -10 -10 -22 -14 -27 -10 -4 5 -5 -4 -1 -19 7 -29 -10 -40
-20 -13 -5 12 -9 11 -27 -5 -27 -26 -43 -25 -50 1 -6 22 -6 22 -39 -4 -18 -15
-40 -33 -49 -40 -9 -8 -22 -11 -28 -8 -7 4 -22 6 -34 5 -12 -1 -25 -3 -29 -3
-5 -1 -8 -11 -8 -23 0 -19 -2 -20 -10 -8 -8 13 -14 10 -35 -15 -13 -16 -24
-34 -25 -38 0 -5 -4 -6 -9 -2 -5 3 -16 -1 -23 -9 -10 -10 -19 -11 -32 -4 -12
7 -27 5 -51 -6 -41 -20 -46 -20 -38 0 4 12 2 15 -8 12 -8 -2 -15 -15 -17 -27
-2 -13 -14 -26 -29 -32 -24 -9 -24 -11 -9 -22 16 -12 16 -14 -3 -31 -16 -14
-24 -16 -34 -7 -11 8 -20 7 -40 -9 -14 -11 -34 -20 -44 -20 -18 0 -33 -20 -47
-62 -3 -10 -14 -18 -25 -18 -16 0 -20 7 -19 33 0 32 23 113 37 132 11 14 38
93 46 132 9 43 94 216 111 226 8 4 14 15 14 22 0 8 3 15 8 15 12 0 42 60 42
86 0 13 -5 33 -12 44 -10 16 -9 24 11 51 19 25 23 43 22 90 -1 46 3 63 21 86
45 55 68 92 68 108 0 21 -17 16 -73 -22 -26 -18 -50 -33 -54 -33 -13 0 -83
-74 -83 -87 0 -7 -12 -19 -27 -26 -16 -6 -31 -17 -35 -23 -4 -7 -23 -15 -42
-18 -19 -4 -37 -13 -40 -21 -3 -8 -22 -22 -43 -30 -33 -14 -36 -18 -22 -28 20
-15 6 -40 -28 -51 -15 -5 -19 -12 -16 -27 3 -11 2 -19 -3 -18 -5 1 -25 1 -44
0 l-35 -2 30 -24 c24 -21 27 -27 15 -34 -8 -6 -27 -7 -43 -4 -21 4 -32 1 -39
-10 -5 -10 -16 -17 -24 -17 -8 0 -12 -4 -9 -10 11 -18 -14 -47 -55 -64 -25
-10 -44 -25 -50 -41 -5 -14 -14 -25 -20 -25 -6 0 -21 -10 -33 -22 -13 -13 -37
-35 -54 -49 -17 -14 -34 -36 -38 -48 -4 -13 -18 -24 -36 -28 -15 -3 -31 -14
-34 -24 -4 -10 -11 -18 -17 -16 -6 1 -12 -7 -13 -18 -1 -11 -3 -24 -5 -30 -7
-29 3 -65 25 -89 14 -15 25 -36 25 -47 0 -18 4 -20 39 -14 30 5 40 3 45 -10 4
-12 0 -19 -14 -22 -12 -3 -20 -13 -19 -22 3 -35 -2 -51 -15 -51 -13 0 -35 -40
-40 -75 -1 -9 -8 -20 -15 -24 -10 -6 -9 -10 2 -14 12 -4 13 -14 7 -42 -4 -19
-12 -41 -18 -48 -5 -7 -8 -30 -7 -52 4 -56 4 -55 19 -55 9 0 12 -8 9 -24 -3
-13 -1 -32 5 -42 6 -12 6 -27 0 -47 -9 -24 -7 -36 11 -67 14 -25 21 -55 21
-90 0 -56 13 -78 94 -160 47 -48 57 -50 54 -10 -1 17 -6 30 -10 30 -16 0 -7
29 17 58 23 28 25 37 21 102 -2 43 -9 76 -16 80 -8 5 -10 18 -6 36 14 53 9 74
-24 104 -20 19 -30 36 -27 47 3 10 8 30 11 46 6 27 29 36 41 17 14 -23 20 -6
22 65 1 41 -3 75 -8 75 -5 0 -9 14 -9 30 0 28 -2 30 -26 24 -18 -5 -29 -1 -39
12 -14 18 -15 18 -32 -3 -12 -15 -22 -20 -32 -14 -11 7 -10 12 5 29 37 41 45
52 40 61 -3 5 4 11 15 14 15 4 19 2 15 -9 -3 -7 3 -18 15 -24 11 -6 17 -15 14
-21 -4 -5 5 -9 19 -9 14 0 26 -5 26 -12 0 -6 14 3 31 20 17 18 38 32 45 32 8
0 20 15 27 33 8 17 21 38 30 46 10 7 17 21 17 30 0 9 24 45 53 80 45 55 52 61
55 42 3 -16 8 -20 22 -16 19 6 36 -20 20 -30 -6 -4 -10 -17 -10 -31 0 -14 -7
-27 -15 -30 -21 -9 -19 -23 9 -49 28 -26 28 -41 1 -73 -20 -23 -22 -37 -25
-145 -1 -43 -6 -60 -20 -70 -18 -12 -40 -56 -40 -78 0 -13 34 -11 47 2 6 6 9
18 6 25 -5 13 23 32 33 22 2 -3 -11 -30 -31 -59 -19 -30 -33 -59 -31 -65 3 -7
-2 -33 -10 -59 -12 -42 -12 -51 2 -81 14 -28 14 -39 4 -63 -6 -17 -9 -35 -5
-42 10 -15 15 -82 15 -184 0 -90 0 -98 2 -177 0 -32 -5 -64 -11 -72 -8 -9 -10
-28 -5 -50 4 -22 2 -36 -4 -36 -11 0 -10 -49 1 -68 5 -7 1 -32 -8 -57 -11 -26
-14 -51 -10 -62 5 -10 7 -26 6 -36 -1 -10 5 -30 14 -44 11 -16 15 -37 12 -57
-2 -17 -1 -51 2 -76 4 -28 2 -57 -6 -77 -13 -33 -9 -57 14 -85 9 -10 11 -18 4
-22 -7 -5 -7 -13 2 -26 10 -17 8 -23 -10 -41 l-21 -22 -26 42 c-14 22 -26 43
-26 46 0 3 -16 40 -35 81 -19 41 -35 79 -35 84 0 6 -12 29 -27 53 -36 55 -69
122 -87 175 -9 24 -34 69 -56 100 -22 32 -40 62 -40 67 0 12 -42 96 -55 110
-5 7 -19 29 -29 51 -23 47 -28 56 -61 113 -14 24 -25 49 -25 56 0 7 -11 33
-25 59 -14 26 -25 52 -25 59 0 7 -12 35 -25 62 -14 28 -25 58 -25 68 0 9 -9
34 -20 54 -11 21 -20 47 -20 58 0 11 -9 52 -21 90 -30 101 -79 312 -85 365
-11 94 -6 89 -82 88 -97 -3 -156 34 -238 144 -39 54 -50 80 -85 198 -7 25 -18
56 -26 70 -21 41 -63 201 -63 242 0 21 -9 94 -21 164 -17 108 -19 154 -14 306
5 166 23 293 45 323 17 22 50 155 50 198 0 83 91 266 151 301 36 21 55 12 62
-30 7 -43 133 -170 152 -154 7 6 15 54 19 113 3 57 11 119 17 138 9 30 18 96
36 264 3 31 14 62 29 82 13 17 24 45 24 62 0 16 10 42 23 58 29 35 67 124 67
157 0 14 4 27 9 30 5 3 11 18 14 33 9 49 55 165 81 205 32 50 44 92 52 198 4
47 11 94 17 105 9 18 38 123 54 195 8 39 47 134 60 148 7 7 18 32 25 55 7 23
65 121 130 218 94 140 130 185 177 223 33 25 83 66 111 90 76 65 236 135 341
149 19 2 45 10 57 16 14 8 22 8 22 1 0 -12 37 -14 44 -1 3 4 19 11 36 14 16 4
35 16 42 27 15 24 31 26 49 4z m-2145 -669 c27 -8 57 -15 66 -15 16 0 45 -20
86 -59 8 -8 23 -16 33 -16 11 -1 28 -11 39 -23 11 -11 32 -28 48 -38 40 -23
79 -105 92 -189 15 -92 11 -560 -6 -702 -13 -119 -17 -137 -39 -193 -21 -54
-28 -75 -29 -80 -2 -12 -41 -95 -47 -100 -9 -7 -33 -53 -35 -67 -3 -16 -64
-91 -101 -124 -54 -47 -246 -159 -273 -159 -11 0 -40 -11 -66 -25 -26 -14 -53
-25 -60 -25 -8 0 -40 -8 -71 -19 -88 -28 -149 -41 -193 -41 -21 0 -42 -5 -45
-11 -4 -6 -13 -8 -21 -5 -8 3 -37 -3 -65 -14 -28 -11 -70 -22 -92 -25 -61 -5
-207 -48 -262 -76 -11 -5 -31 -11 -45 -13 -14 -2 -41 -10 -60 -18 -19 -9 -69
-28 -110 -43 -41 -15 -95 -35 -120 -45 -53 -22 -101 -36 -152 -45 -21 -3 -38
-9 -38 -13 0 -10 -60 -32 -84 -32 -9 0 -31 -7 -49 -16 -28 -15 -166 -37 -222
-36 -69 2 -285 105 -285 137 0 6 -9 20 -20 30 -11 10 -20 23 -20 30 0 6 -13
29 -29 51 -15 21 -42 80 -60 129 -33 96 -40 188 -21 270 5 22 11 63 15 90 3
28 10 77 15 110 5 33 12 89 15 125 11 151 24 251 33 263 5 7 13 28 17 47 4 19
16 46 27 59 10 14 23 44 29 68 6 24 15 43 20 43 5 0 9 9 9 20 0 10 6 23 13 27
7 4 24 30 37 56 14 27 36 55 50 62 14 8 38 30 54 49 16 20 37 36 47 36 10 0
21 5 24 10 4 6 21 17 38 25 18 7 43 20 57 28 14 8 61 27 105 42 70 24 101 31
152 34 6 1 18 7 25 14 7 7 40 19 73 26 33 8 96 22 140 33 44 11 107 25 140 30
82 14 165 38 165 49 0 5 15 9 33 9 45 1 119 19 137 34 8 7 46 21 83 30 38 9
90 27 115 41 26 13 65 27 87 31 22 3 47 12 55 19 24 20 111 55 137 55 13 0 38
7 56 17 91 47 262 66 353 38z m3284 -825 c11 -6 17 -16 15 -23 -2 -6 12 -25
31 -41 l35 -29 38 17 c25 12 49 15 73 11 26 -5 39 -2 51 10 10 9 17 12 17 6 0
-6 11 -29 25 -51 27 -42 26 -46 -6 -30 -13 8 -25 7 -40 -1 -12 -6 -35 -12 -50
-13 -18 -1 -40 -14 -59 -36 -27 -30 -30 -32 -30 -12 0 29 -11 28 -38 -3 -12
-14 -26 -25 -32 -25 -5 0 -10 -18 -10 -41 0 -24 -4 -38 -10 -34 -5 3 -10 1
-10 -6 0 -7 -7 -4 -15 7 -14 19 -14 19 -15 -2 0 -12 -11 -27 -26 -34 -26 -15
-50 -48 -40 -57 6 -6 -19 -33 -31 -33 -4 0 -19 12 -32 25 -13 14 -26 25 -30
25 -11 0 -44 68 -37 78 4 6 2 13 -4 17 -17 11 -11 30 13 40 13 6 27 26 35 52
11 34 18 42 35 40 18 -2 22 3 23 30 1 33 20 69 55 104 21 21 41 24 69 9z
m-1202 -2647 c13 -3 28 -16 33 -29 12 -32 26 -30 49 8 l19 32 9 -25 c6 -14 6
-28 0 -35 -5 -7 -8 -16 -7 -20 6 -34 -24 -47 -49 -22 -9 9 -12 9 -12 0 0 -7
-9 -12 -21 -12 -15 0 -20 -5 -17 -22 3 -21 8 -23 72 -23 61 0 70 2 79 23 10
22 37 31 37 13 0 -6 11 -22 24 -36 18 -19 31 -25 45 -20 11 3 34 -1 50 -9 17
-9 39 -16 51 -16 11 0 20 -6 20 -14 0 -23 -28 -39 -59 -33 -35 7 -97 -9 -108
-27 -14 -24 -240 -42 -261 -21 -3 3 -13 -2 -22 -10 -10 -9 -46 -20 -81 -26
-76 -11 -118 -26 -141 -50 -16 -16 -20 -17 -50 -2 -60 29 -62 33 -31 64 42 40
53 56 53 74 0 9 4 13 10 10 5 -3 7 0 4 9 -14 36 41 124 63 102 6 -6 -17 -31
-34 -37 -7 -2 -9 -9 -4 -17 6 -10 13 -8 33 8 15 11 31 20 37 20 6 0 11 7 11
15 0 8 -6 15 -14 15 -28 0 -27 19 1 26 15 4 34 16 41 26 17 24 39 23 52 -3 9
-16 17 -19 41 -14 24 6 29 3 29 -13 0 -11 -5 -22 -12 -24 -6 -2 -8 -9 -4 -16
14 -23 36 0 36 39 0 35 -3 39 -25 39 -31 0 -31 7 -3 37 24 25 23 25 56 16z
m208 -449 l55 -26 20 26 c23 29 49 32 131 14 70 -15 104 -47 113 -105 8 -58
15 -74 26 -67 13 7 11 81 -2 106 -8 15 -8 19 1 13 7 -4 25 2 41 14 16 12 54
26 84 32 76 14 106 -3 136 -76 25 -61 45 -70 61 -27 12 30 74 72 106 72 25 0
36 -15 51 -65 7 -22 17 -50 23 -63 9 -17 9 -25 0 -34 -7 -7 -12 -21 -12 -32 0
-10 3 -17 6 -13 3 3 4 7 2 10 -1 2 3 11 10 19 7 9 15 33 17 54 7 52 43 84 96
84 32 0 41 -4 48 -23 15 -40 -5 -134 -30 -140 -11 -3 -19 -14 -19 -25 0 -60
-51 -73 -85 -22 -22 33 -46 38 -65 14 -14 -16 -74 -44 -95 -44 -7 0 -30 12
-51 26 -35 24 -39 25 -49 9 -38 -64 -40 -65 -145 -65 l-98 0 -28 33 c-15 17
-29 28 -31 22 -12 -35 -24 -39 -117 -43 -93 -4 -95 -4 -121 24 -22 24 -32 27
-76 25 -27 -1 -66 4 -85 11 -25 9 -37 9 -42 2 -22 -35 -86 -44 -104 -15 -9 15
-17 17 -35 10 -18 -7 -29 -3 -55 20 -18 15 -40 30 -49 33 -27 10 -29 58 -6
118 19 48 26 55 52 58 16 2 41 12 56 23 33 23 77 24 108 3 22 -16 24 -15 49
10 33 32 40 32 108 0z m-553 -428 c23 -50 48 -76 72 -76 24 0 45 -18 45 -38 0
-29 157 -182 222 -216 100 -52 120 -65 142 -85 25 -23 49 -26 93 -10 29 10
122 2 178 -15 26 -8 47 6 39 27 -3 9 -9 15 -13 13 -4 -3 -20 4 -37 15 -16 10
-47 19 -69 19 -59 0 -111 22 -154 64 -35 34 -39 43 -45 109 -4 39 -13 81 -21
94 -22 34 -18 58 16 92 27 27 37 31 82 30 41 -1 47 -3 27 -9 -24 -8 -23 -8 8
-9 19 -1 32 -6 32 -14 0 -30 98 -86 136 -79 17 3 26 -27 14 -46 -5 -10 -10
-13 -10 -8 0 5 -6 3 -14 -3 -11 -9 -12 -21 -4 -53 5 -23 12 -46 15 -51 9 -14
33 22 26 39 -3 7 5 27 16 43 12 16 21 33 21 39 0 15 29 69 44 81 21 18 83 5
117 -23 40 -34 75 -42 113 -26 42 18 91 16 151 -5 82 -29 86 -37 83 -130 -1
-44 -1 -87 2 -95 4 -11 -10 -18 -55 -29 -33 -8 -52 -17 -42 -19 9 -2 17 -9 17
-16 0 -14 -81 -60 -109 -62 -26 -1 -61 -16 -61 -24 0 -5 -9 -6 -19 -3 -14 4
-24 -3 -35 -26 -19 -36 -30 -38 -53 -12 -23 27 -54 13 -110 -49 -25 -28 -51
-50 -58 -50 -7 0 -26 -7 -41 -15 -16 -8 -47 -15 -70 -15 -59 0 -156 -21 -175
-37 -14 -12 -17 -12 -23 2 -8 21 -46 2 -44 -23 4 -48 -2 -61 -29 -64 -19 -2
-29 -10 -33 -27 l-6 -25 -19 25 c-22 26 -52 34 -74 20 -12 -8 -12 -14 -1 -43
17 -40 27 -48 63 -48 20 0 27 -5 27 -20 0 -12 10 -25 26 -32 15 -7 27 -23 31
-40 4 -22 9 -26 18 -18 8 7 16 7 19 2 3 -6 21 -13 40 -16 18 -4 42 -16 52 -27
24 -27 83 -54 94 -43 4 5 10 17 12 27 4 25 22 23 26 -3 2 -12 16 -26 30 -33
38 -17 60 -39 44 -45 -6 -2 -12 -19 -12 -38 0 -32 2 -34 35 -34 23 0 35 5 35
14 0 27 29 26 42 -2 11 -22 21 -28 55 -30 23 -2 47 -10 53 -18 7 -7 18 -14 24
-14 19 0 63 -50 45 -51 -22 -2 -22 -2 -51 5 -21 5 -28 3 -28 -9 0 -17 -45 -21
-56 -4 -4 7 -10 7 -16 1 -5 -5 -27 -7 -49 -5 -21 3 -45 1 -52 -5 -7 -6 -43
-21 -80 -33 -48 -16 -74 -30 -88 -51 -11 -15 -27 -28 -34 -28 -8 0 -20 -12
-27 -27 -11 -23 -21 -29 -57 -31 l-44 -3 5 38 c3 21 2 47 -3 58 -7 19 -8 19
-8 -2 -1 -17 -7 -23 -23 -24 l-23 0 23 -10 c21 -8 22 -11 8 -24 -8 -8 -21 -15
-30 -15 -8 0 -18 -4 -21 -10 -3 -5 -17 -10 -31 -10 -13 0 -29 -9 -36 -20 -16
-25 -38 -26 -38 -1 0 10 -7 24 -15 31 -11 9 -12 16 -5 26 9 10 6 11 -11 7 -18
-5 -21 -3 -16 10 4 11 1 17 -8 17 -8 0 -15 -4 -15 -9 0 -4 -12 -24 -28 -43
-26 -33 -29 -34 -50 -20 -31 20 -68 8 -80 -25 l-9 -28 -8 35 c-8 33 -9 34 -15
10 -8 -33 -35 -33 -36 1 -1 14 -4 32 -9 38 -8 15 25 49 42 44 18 -6 26 16 9
23 -9 3 -16 15 -16 25 0 10 -3 19 -6 19 -9 0 -34 -28 -34 -38 0 -5 -7 -15 -15
-22 -8 -7 -15 -26 -15 -44 l0 -31 -22 32 c-23 33 -53 43 -61 21 -2 -7 -8 -10
-12 -6 -13 12 13 58 38 67 12 5 28 16 35 24 10 12 9 16 -5 22 -10 5 -21 7 -25
7 -5 -1 -8 2 -8 8 0 5 -21 9 -47 7 -35 -1 -50 -7 -55 -19 -4 -10 -12 -18 -18
-18 -17 0 -51 40 -44 52 5 9 9 9 11 1 2 -6 12 -9 21 -8 75 15 74 15 57 32 -10
9 -15 26 -12 39 3 16 -3 25 -20 33 -12 6 -23 15 -23 21 0 6 -4 8 -10 5 -5 -3
-10 -1 -10 4 0 6 4 11 9 11 15 0 20 64 6 80 -11 12 -11 18 1 34 8 11 14 30 14
43 0 15 10 28 30 38 39 20 39 39 0 30 -24 -5 -29 -4 -24 8 3 8 22 18 42 22 59
11 85 41 35 40 -14 0 -28 6 -30 13 -3 6 2 12 11 12 22 0 20 17 -4 32 -27 17
-25 25 7 33 26 6 27 7 8 17 -11 6 -21 11 -22 12 0 1 -4 18 -8 39 -7 33 -5 37
14 37 27 0 28 30 1 53 -11 9 -20 21 -20 26 0 11 38 2 46 -10 3 -5 9 -9 14 -9
13 0 -1 44 -18 58 -9 6 -12 12 -8 12 5 0 4 6 -2 13 -12 14 -9 62 8 122 6 22
11 57 10 79 0 21 8 55 19 76 11 21 20 47 20 57 0 29 26 125 43 166 21 46 39
47 61 3z m6112 -1471 c145 -20 281 -59 335 -98 13 -9 32 -17 41 -17 10 0 27
-16 39 -35 15 -25 29 -35 43 -34 43 4 64 -1 84 -20 12 -11 23 -18 25 -15 11
10 128 -39 133 -56 5 -15 13 -17 48 -13 31 3 38 2 27 -6 -13 -9 -13 -11 2 -11
9 0 28 -5 41 -11 22 -10 25 -18 26 -69 0 -57 -25 -150 -48 -173 -7 -7 -35 -11
-75 -9 -56 3 -67 0 -107 -26 -24 -17 -47 -28 -51 -26 -5 3 -8 -2 -8 -10 0 -9
-11 -23 -24 -31 -25 -17 -53 -73 -67 -135 -4 -19 -10 -46 -13 -60 -4 -14 -11
-63 -17 -109 -5 -46 -14 -102 -19 -125 -8 -38 -16 -97 -51 -381 -23 -180 -17
-548 9 -574 12 -13 12 -16 -2 -26 -19 -15 -21 -39 -3 -32 10 4 13 -2 9 -19 -2
-13 -5 -24 -6 -24 -5 0 -141 72 -246 130 -63 34 -142 84 -174 109 -127 98
-160 124 -215 161 -31 21 -85 64 -121 95 -36 31 -92 74 -125 95 -79 51 -225
163 -295 225 -31 28 -78 68 -105 90 -28 21 -74 66 -103 98 l-53 58 6 122 c3
67 7 215 10 329 2 115 8 216 13 225 5 10 15 41 21 70 9 45 33 93 74 144 16 21
111 97 166 132 76 50 124 57 401 63 140 3 257 7 259 10 5 5 -4 6 116 -11z
m-1973 -11 c7 -6 24 -11 38 -12 13 -1 30 -8 36 -17 6 -8 27 -20 45 -27 38 -13
131 -103 179 -175 34 -50 47 -107 55 -247 3 -41 10 -73 17 -78 8 -5 -9 -8 -41
-6 -71 2 -110 29 -127 87 -7 24 -21 53 -32 65 -10 11 -43 64 -72 116 -30 52
-80 135 -112 183 -47 73 -56 92 -48 108 11 19 38 21 62 3z"/>
<path d="M3785 9348 c-64 -22 -97 -43 -112 -71 -8 -16 -29 -44 -47 -61 -43
-44 -65 -92 -57 -125 9 -34 47 -41 68 -12 10 16 21 19 39 15 22 -6 24 -4 18
25 -6 29 -5 31 24 31 21 0 35 7 42 20 6 11 7 20 3 20 -4 0 -2 5 3 10 9 9 92
13 141 7 28 -4 43 -17 20 -17 -21 0 -22 -16 -2 -24 8 -3 15 -12 15 -21 0 -8 5
-15 10 -15 6 0 10 5 10 11 0 6 12 -3 26 -20 14 -17 34 -31 45 -31 29 0 89 -42
89 -62 0 -20 39 -25 57 -7 8 8 13 8 17 0 8 -12 39 -15 33 -3 -2 4 7 17 20 29
13 12 23 19 23 15 0 -4 3 -17 6 -29 5 -17 1 -22 -17 -25 -12 -2 -24 -9 -27
-16 -2 -7 2 -11 9 -10 8 2 15 -7 17 -19 2 -16 -2 -23 -12 -23 -18 0 -22 -40
-6 -56 6 -6 3 -10 -11 -11 -29 -3 -34 -10 -20 -27 13 -16 14 -16 -34 -70 -14
-16 -25 -35 -25 -44 0 -8 -6 -12 -13 -9 -7 3 -31 -3 -53 -14 -21 -10 -51 -18
-65 -19 -24 0 -53 -12 -216 -92 -87 -43 -173 -133 -173 -182 0 -19 -3 -37 -7
-39 -5 -3 -30 -2 -58 2 -40 5 -53 3 -67 -11 -17 -17 -15 -18 57 -18 68 0 76
-2 91 -25 14 -21 19 -23 37 -13 14 7 61 9 144 5 97 -5 123 -4 123 6 0 8 -14
20 -31 28 -42 19 -42 32 1 40 19 3 40 8 45 10 21 7 51 -12 73 -46 13 -21 30
-35 42 -35 11 0 20 -4 20 -10 0 -5 -14 -10 -31 -10 -19 0 -28 -4 -24 -11 5 -6
25 -8 54 -5 37 5 51 2 71 -14 21 -17 23 -22 10 -29 -9 -5 -31 -23 -50 -40 -31
-27 -70 -39 -105 -31 -15 3 -119 -22 -129 -32 -6 -4 -18 -8 -27 -8 -10 0 -19
-5 -21 -11 -2 -6 -31 -12 -66 -14 -67 -2 -89 -13 -79 -39 9 -22 24 -20 32 4 7
22 43 27 74 11 12 -7 31 -5 58 4 30 10 50 12 74 5 19 -6 40 -8 49 -5 8 2 40
-2 70 -11 116 -33 249 -37 338 -12 37 11 87 25 112 31 25 6 57 23 71 38 14 14
32 30 41 35 8 5 18 18 22 30 5 15 0 24 -19 34 -29 16 -33 30 -7 30 25 0 42 19
42 47 0 37 53 64 120 61 31 -1 61 1 68 6 16 10 15 56 -2 75 -8 9 -23 52 -34
96 -20 81 -17 105 14 105 7 0 18 19 24 41 7 27 18 43 31 46 30 8 24 42 -8 49
-51 11 -53 13 -53 54 0 43 0 43 -70 44 -25 1 -36 6 -38 19 -2 10 0 17 5 16 26
-4 32 3 27 30 -5 25 -3 29 25 34 25 5 31 12 31 32 0 16 -6 25 -15 25 -8 0 -15
5 -15 10 0 6 5 10 10 10 6 0 10 5 10 10 0 6 -7 10 -15 10 -8 0 -15 -4 -15 -10
0 -5 -9 -10 -20 -10 -15 0 -20 7 -20 25 0 18 5 25 19 25 11 0 22 -6 24 -12 3
-7 6 -8 6 -2 1 5 -5 19 -13 29 -11 15 -17 17 -28 8 -23 -20 -58 -12 -58 13 0
12 5 24 12 26 7 3 9 12 4 24 -7 18 -8 18 -27 -6 -11 -14 -24 -35 -29 -47 -11
-26 -30 -31 -30 -8 0 8 5 26 12 40 10 23 10 28 -5 36 -9 6 -17 19 -17 29 0 11
-9 24 -20 30 -16 9 -20 8 -20 -5 0 -20 -22 -19 -65 5 -19 11 -35 15 -35 10 0
-15 -31 -12 -49 4 -22 19 -140 58 -152 50 -19 -11 -141 -15 -154 -4 -8 7 -23
6 -46 -4 -19 -8 -39 -10 -48 -6 -9 4 -43 13 -76 18 -33 6 -71 13 -85 16 -14 2
-38 0 -55 -6z m311 -747 c25 -1 28 -31 3 -31 -10 0 -20 -4 -23 -9 -3 -5 -18
-12 -33 -15 -28 -7 -181 -60 -218 -76 -11 -5 -29 -10 -40 -13 -11 -3 -28 -8
-39 -12 -16 -7 -17 -5 -11 16 9 31 42 67 79 86 41 21 206 62 236 58 14 -2 34
-4 46 -4z"/>
<path d="M2915 8379 c-36 -56 -42 -73 -55 -158 -6 -41 -15 -80 -19 -85 -5 -6
-16 -33 -24 -61 -9 -27 -25 -77 -37 -110 -18 -50 -21 -71 -15 -125 4 -36 9
-108 11 -160 6 -121 14 -179 25 -186 5 -3 9 12 10 33 1 79 18 270 29 327 6 32
19 80 30 105 10 25 26 78 35 116 9 39 36 111 61 161 24 49 44 100 44 113 0 22
-41 71 -59 71 -6 0 -22 -18 -36 -41z"/>
<path d="M3078 7943 c-10 -2 -31 -16 -47 -31 -27 -26 -63 -55 -87 -70 -51 -34
-38 -241 23 -369 23 -50 37 -66 102 -119 42 -35 56 -42 67 -33 16 13 19 91 4
118 -5 10 -14 51 -21 90 -9 64 -8 78 12 143 17 57 21 86 16 144 -5 72 -23 126
-42 130 -5 1 -18 0 -27 -3z"/>
<path d="M4598 7273 c-32 -2 -58 -7 -58 -11 1 -9 115 -49 218 -75 108 -27 122
-15 50 41 -58 44 -98 53 -210 45z"/>
<path d="M4211 4901 c-11 -7 -11 -15 -3 -40 15 -42 0 -47 -36 -11 -33 32 -86
43 -76 15 4 -9 19 -15 35 -15 19 0 29 -5 29 -15 0 -8 5 -15 10 -15 6 0 10 -11
10 -24 0 -35 23 -50 52 -35 33 18 86 20 92 3 3 -7 12 -11 20 -8 8 3 31 -6 51
-21 l35 -28 25 27 c14 15 30 24 36 20 6 -3 7 -9 3 -13 -13 -9 -13 -72 0 -68 6
2 10 14 8 25 -2 12 2 22 7 22 6 0 11 -5 11 -11 0 -5 5 -7 10 -4 6 3 10 17 10
31 0 25 -24 40 -80 50 -14 3 -38 14 -53 25 -22 16 -31 18 -42 9 -12 -10 -16
-8 -21 6 -14 37 -26 46 -39 28 -17 -24 -38 -8 -31 22 5 17 2 24 -8 24 -8 0
-20 2 -28 5 -7 3 -19 1 -27 -4z"/>
<path d="M5190 3592 c-36 -15 -123 -57 -194 -94 -70 -38 -131 -68 -133 -68
-11 0 -98 -45 -111 -57 -7 -7 -18 -13 -23 -13 -5 0 -9 -6 -9 -14 0 -21 59 -25
118 -8 28 9 52 20 52 24 0 4 7 8 15 8 17 0 122 55 146 76 8 8 20 14 25 14 22
0 205 140 198 151 -7 12 -10 12 -84 -19z"/>
<path d="M3430 3562 c0 -9 -13 -23 -30 -30 -26 -12 -30 -19 -30 -53 0 -26 -4
-39 -13 -39 -8 0 -19 -17 -25 -37 -6 -21 -20 -69 -32 -107 -12 -43 -20 -99
-20 -145 0 -42 -4 -93 -9 -114 -6 -23 -5 -39 1 -43 5 -3 7 -12 4 -20 -3 -8 -2
-14 3 -14 9 0 0 -59 -14 -95 -10 -26 -114 -128 -173 -171 -73 -53 -130 -79
-222 -103 -147 -39 -272 -82 -345 -118 -85 -43 -262 -149 -282 -169 -8 -7 -18
-14 -22 -14 -17 0 -215 -171 -368 -317 -13 -13 -27 -23 -31 -23 -4 0 -19 -10
-32 -22 -30 -27 -55 -35 -47 -15 3 8 -4 49 -15 93 -10 43 -22 90 -25 104 -4
14 -24 42 -45 63 -21 21 -38 44 -38 52 0 8 -6 15 -14 15 -7 0 -19 7 -26 15
-16 19 -60 19 -97 1 -69 -35 -164 -56 -247 -56 -69 0 -226 -22 -226 -32 0 -4
-5 -8 -11 -8 -22 0 -81 -49 -109 -92 -17 -25 -37 -67 -44 -93 -14 -45 -13 -52
11 -129 15 -44 35 -93 44 -107 23 -34 59 -128 59 -156 0 -12 9 -46 19 -75 26
-70 41 -379 20 -404 -10 -12 -13 -59 -14 -173 0 -157 -4 -181 -30 -181 -8 0
-23 -9 -34 -21 -17 -18 -26 -20 -75 -14 -31 4 -59 12 -62 17 -3 5 -11 5 -19
-2 -9 -7 -16 -6 -25 5 -7 8 -29 15 -49 15 -27 0 -44 7 -61 25 -13 14 -33 25
-44 25 -12 1 -37 14 -56 30 -19 17 -38 30 -43 30 -16 0 -132 88 -197 150 -36
34 -90 84 -121 112 -31 27 -74 75 -95 106 -83 123 -74 189 -74 -562 l0 -666
1478 0 1477 0 29 62 c50 110 97 250 121 365 34 153 115 388 268 773 147 369
208 488 355 700 123 176 177 262 246 396 42 80 81 167 88 192 14 61 34 100 68
137 15 17 30 41 33 55 4 13 0 92 -8 175 -8 82 -17 202 -20 265 -8 143 -18 180
-49 180 -16 0 -34 -16 -62 -57 -21 -32 -42 -59 -46 -61 -5 -2 -8 -8 -8 -14 0
-32 -104 -118 -143 -118 -10 0 -34 -8 -55 -19 -20 -10 -57 -22 -82 -26 -25 -3
-60 -12 -77 -18 -27 -9 -39 -8 -69 6 -35 17 -36 19 -19 37 12 14 15 28 11 47
-4 15 -6 35 -5 43 7 48 0 315 -8 317 -6 2 -8 15 -5 28 5 28 -21 75 -42 75 -8
0 -16 9 -19 20 -6 25 -27 27 -27 2z"/>
</g>
</svg>
